{"title":"[ShepardTDS] The World God Only Knows III Goddesses Dual Audio [","uid":12688932,"size":2451408541,"categoryP":"video","categoryS":"tv_shows","magnet":"?xt=urn:btih:4e6e19f43e42bb1760d2231614eb6447e32453c8&amp;dn=%5BShepardTDS%5D+The+World+God+Only+Knows+III+Goddesses+Dual+Audio+%5B&amp;tr=udp%3A%2F%2Ftracker.leechers-paradise.org%3A6969&amp;tr=udp%3A%2F%2Fzer0day.ch%3A1337&amp;tr=udp%3A%2F%2Fopen.demonii.com%3A1337&amp;tr=udp%3A%2F%2Ftracker.coppersurfer.tk%3A6969&amp;tr=udp%3A%2F%2Fexodus.desync.com%3A6969","seeders":1,"leechers":0,"uploader":"ShepardTDS","files":23,"time":1446647742,"description":"Constant Quality encoding.\r\nVariable Bit rates\r\nED and OP included\r\nBlu-Ray Source\r\n\r\nGeneral\r\n\r\nFormat : Matroska\r\nFile size : 155 MiB-220 MiB\r\nDuration : 24mn 23s\r\nOverall bit rate : 887 Kbps-1,261 Kbps\r\nEncoded date : UTC 2015-10-24 03:11:05\r\nWriting application : mkvmerge v7.7.0 ('Six Voices') 32bit built on Feb 28 2015 23:23:00\r\nWriting library : libebml v1.3.1 + libmatroska v1.4.2\r\n\r\nVideo\r\nID : 1\r\nFormat : V_MPEGH/ISO/HEVC\r\nCodec ID : V_MPEGH/ISO/HEVC\r\nDuration : 24mn 23s\r\nBit rate : 485 Kbps-852 Kbps\r\nWidth : 1 280 pixels\r\nHeight : 720 pixels\r\nDisplay aspect ratio : 16:9\r\nFrame rate : 23.976 fps\r\nBits/(Pixel*Frame) : 0.022\r\nStream size : 84.6 MiB (55%)\r\n\r\nAudio #1\r\nID : 2\r\nFormat : AC-3\r\nFormat/Info : Audio Coding 3\r\nMode extension : CM (complete main)\r\nCodec ID : A_AC3\r\nDuration : 24mn 23s\r\nBit rate mode : Constant\r\nBit rate : 192 Kbps\r\nChannel(s) : 2 channels\r\nChannel positions : Front: L R\r\nSampling rate : 48.0 KHz\r\nBit depth : 16 bits\r\nCompression mode : Lossy\r\nStream size : 33.5 MiB (22%)\r\nLanguage : English\r\n\r\nAudio #2\r\nID : 3\r\nFormat : AC-3\r\nFormat/Info : Audio Coding 3\r\nMode extension : CM (complete main)\r\nCodec ID : A_AC3\r\nDuration : 24mn 23s\r\nBit rate mode : Constant\r\nBit rate : 192 Kbps\r\nChannel(s) : 2 channels\r\nChannel positions : Front: L R\r\nSampling rate : 48.0 KHz\r\nBit depth : 16 bits\r\nCompression mode : Lossy\r\nStream size : 33.5 MiB (22%)\r\nLanguage : Japanese\r\n\r\nText #1\r\nID : 4\r\nFormat : ASS\r\nCodec ID : S_TEXT/ASS\r\nCodec ID/Info : Advanced Sub Station Alpha\r\nCompression mode : Lossless\r\nTitle : Signs &amp; Songs (deanzel)\r\nLanguage : English\r\n\r\nText #2\r\nID : 5\r\nFormat : ASS\r\nCodec ID : S_TEXT/ASS\r\nCodec ID/Info : Advanced Sub Station Alpha\r\nCompression mode : Lossless\r\nTitle : Vivid\r\nLanguage : English\r\n\r\nText #3\r\nID : 6\r\nFormat : ASS\r\nCodec ID : S_TEXT/ASS\r\nCodec ID/Info : Advanced Sub Station Alpha\r\nCompression mode : Lossless\r\nTitle : Vivid (Honorifics)\r\nLanguage : English\r\n\r\nMenu\r\n00:00:00.033 : en:Intro\r\n00:00:46.046 : en:OP\r\n00:02:16.011 : en:Part A\r\n00:11:47.040 : en:Part B\r\n00:24:05.027 : en:Preview","torrent":{"xt":"urn:btih:4e6e19f43e42bb1760d2231614eb6447e32453c8","amp;dn":"%5BShepardTDS%5D+The+World+God+Only+Knows+III+Goddesses+Dual+Audio+%5B","amp;tr":["udp%3A%2F%2Ftracker.leechers-paradise.org%3A6969","udp%3A%2F%2Fzer0day.ch%3A1337","udp%3A%2F%2Fopen.demonii.com%3A1337","udp%3A%2F%2Ftracker.coppersurfer.tk%3A6969","udp%3A%2F%2Fexodus.desync.com%3A6969"],"infoHash":"4e6e19f43e42bb1760d2231614eb6447e32453c8","infoHashBuffer":{"type":"Buffer","data":[78,110,25,244,62,66,187,23,96,210,35,22,20,235,100,71,227,36,83,200]},"announce":[],"urlList":[]}}